<svg width="12" height="8" viewBox="0 0 12 8" fill="none" xmlns="http://www.w3.org/2000/svg">
<path d="M4.10397 6.2539L10.6808 0.213809C10.836 0.0712696 11.017 0 11.224 0C11.4309 0 11.612 0.0712696 11.7672 0.213809C11.9224 0.356348 12 0.525731 12 0.72196C12 0.918189 11.9224 1.08733 11.7672 1.2294L4.64718 7.78619C4.49198 7.92873 4.31091 8 4.10397 8C3.89703 8 3.71596 7.92873 3.56075 7.78619L0.223853 4.7216C0.0686483 4.57906 -0.00585002 4.40992 0.000358164 4.21416C0.00656635 4.01841 0.0875312 3.84903 0.243253 3.70601C0.398975 3.563 0.58341 3.49173 0.796558 3.4922C1.00971 3.49268 1.19388 3.56395 1.34909 3.70601L4.10397 6.2539Z" fill="white"/>
</svg>
