<svg width="20" height="20" viewBox="0 0 20 20" fill="none" xmlns="http://www.w3.org/2000/svg">
<g clip-path="url(#clip0_4499_818)">
<path d="M12.2539 3.25098C12.6679 3.25098 13.0039 3.58698 13.0039 4.00098V5.50098H16.7539C17.1679 5.50098 17.5039 5.83698 17.5039 6.25098V16.001C17.5039 16.415 17.1679 16.751 16.7539 16.751H3.25391C2.83991 16.751 2.50391 16.415 2.50391 16.001V6.25098C2.50391 5.83698 2.83991 5.50098 3.25391 5.50098H7.00391V4.00098C7.00391 3.58698 7.33991 3.25098 7.75391 3.25098H12.2539ZM5.50391 15.251H7.00391V7.00098H5.50391V15.251ZM13.0039 15.251H14.5039V7.00098H13.0039V15.251ZM8.50391 5.50098H11.5039V4.75098H8.50391V5.50098Z" fill="#FC7827"/>
</g>
<defs>
<clipPath id="clip0_4499_818">
<rect width="20" height="20" fill="white"/>
</clipPath>
</defs>
</svg>
