<svg width="20" height="20" viewBox="0 0 20 20" fill="none" xmlns="http://www.w3.org/2000/svg">
<g clip-path="url(#clip0_4499_827)">
<path fill-rule="evenodd" clip-rule="evenodd" d="M3.17925 2.7256L17.2837 7.42677C17.3565 7.45101 17.4205 7.49707 17.4664 7.55861C17.5122 7.62024 17.5383 7.69472 17.5406 7.7715C17.5428 7.84829 17.5212 7.92405 17.4791 7.9883C17.4369 8.0526 17.3757 8.10237 17.3042 8.13088L10.7544 10.751L7.43609 17.3877C7.40236 17.4552 7.34867 17.5111 7.28276 17.5479C7.2168 17.5845 7.14113 17.6007 7.06597 17.5938C6.99073 17.5868 6.91905 17.557 6.86089 17.5088C6.80283 17.4606 6.76055 17.3958 6.7398 17.3233L2.69976 3.18361C2.68108 3.11796 2.68087 3.0483 2.69878 2.98244C2.71673 2.91666 2.752 2.85667 2.80132 2.80959C2.85069 2.76251 2.91246 2.72969 2.97905 2.71486C3.04551 2.70014 3.11471 2.70398 3.17925 2.7256Z" fill="#FC7827"/>
</g>
<defs>
<clipPath id="clip0_4499_827">
<rect width="20" height="20" fill="white"/>
</clipPath>
</defs>
</svg>
